<svg xmlns="http://www.w3.org/2000/svg" width="2100" height="1450" viewBox="0 0 2100 1450">
  <rect x="0" y="0" width="2100" height="1450" fill="#ffffff"/>
  <text x="1050.0" y="58.0" text-anchor="middle" font-family="PingFang SC, Heiti SC, Microsoft YaHei, sans-serif" font-size="42" font-weight="700" fill="#000000">图2</text>
  <rect x="110" y="120" width="1880" height="480" fill="#ffffff" stroke="#000000" stroke-width="4"/>
  <text x="250" y="168" text-anchor="start" font-family="PingFang SC, Heiti SC, Microsoft YaHei, sans-serif" font-size="30" font-weight="700" fill="#000000">语义能力地址层</text>
  <rect x="190" y="260" width="260" height="110" fill="#ffffff" stroke="#000000" stroke-width="4"/>
  <text x="320.0" y="319.0" text-anchor="middle" font-family="PingFang SC, Heiti SC, Microsoft YaHei, sans-serif" font-size="32" font-weight="400" fill="#000000">用户请求</text>
  <rect x="600" y="260" width="360" height="110" fill="#ffffff" stroke="#000000" stroke-width="4"/>
  <text x="780.0" y="319.0" text-anchor="middle" font-family="PingFang SC, Heiti SC, Microsoft YaHei, sans-serif" font-size="32" font-weight="400" fill="#000000">预设命名空间</text>
  <rect x="1110" y="225" width="380" height="180" fill="#ffffff" stroke="#000000" stroke-width="4"/>
  <text x="1300.0" y="297.5" text-anchor="middle" font-family="PingFang SC, Heiti SC, Microsoft YaHei, sans-serif" font-size="32" font-weight="400" fill="#000000">语义能力地址</text>
  <text x="1300.0" y="340.5" text-anchor="middle" font-family="PingFang SC, Heiti SC, Microsoft YaHei, sans-serif" font-size="32" font-weight="400" fill="#000000">候选集合</text>
  <rect x="1610" y="210" width="280" height="110" fill="#ffffff" stroke="#000000" stroke-width="4"/>
  <text x="1750.0" y="269.0" text-anchor="middle" font-family="PingFang SC, Heiti SC, Microsoft YaHei, sans-serif" font-size="30" font-weight="400" fill="#000000">最终主能力地址</text>
  <rect x="1610" y="355" width="280" height="110" fill="#ffffff" stroke="#000000" stroke-width="4"/>
  <text x="1750.0" y="414.0" text-anchor="middle" font-family="PingFang SC, Heiti SC, Microsoft YaHei, sans-serif" font-size="30" font-weight="400" fill="#000000">最终相关能力地址</text>
  <line x1="450" y1="315" x2="576.0" y2="315.0" stroke="#000000" stroke-width="4" fill="none"/>
  <polygon points="600,315 576.0,331.0 576.0,299.0" fill="#000000"/>
  <line x1="960" y1="315" x2="1086.0" y2="315.0" stroke="#000000" stroke-width="4" fill="none"/>
  <polygon points="1110,315 1086.0,331.0 1086.0,299.0" fill="#000000"/>
  <line x1="1490" y1="280" x2="1586.1853309588719" y2="267.976833630141" stroke="#000000" stroke-width="4" fill="none"/>
  <polygon points="1610,265 1588.169886712299,283.8532796575597 1584.2007752054446,252.10038760272232" fill="#000000"/>
  <line x1="1490" y1="350" x2="1588.533747416002" y2="399.266873708001" stroke="#000000" stroke-width="4" fill="none"/>
  <polygon points="1610,410 1581.3783298880026,413.5777087639997 1595.6891649440013,384.95603865200235" fill="#000000"/>
  <rect x="110" y="730" width="1880" height="560" fill="#ffffff" stroke="#000000" stroke-width="4"/>
  <text x="250" y="778" text-anchor="start" font-family="PingFang SC, Heiti SC, Microsoft YaHei, sans-serif" font-size="30" font-weight="700" fill="#000000">智能体实例地址层</text>
  <rect x="200" y="910" width="360" height="130" fill="#ffffff" stroke="#000000" stroke-width="4"/>
  <text x="380.0" y="979.0" text-anchor="middle" font-family="PingFang SC, Heiti SC, Microsoft YaHei, sans-serif" font-size="30" font-weight="400" fill="#000000">智能体注册快照</text>
  <rect x="770" y="860" width="500" height="220" fill="#ffffff" stroke="#000000" stroke-width="4"/>
  <text x="1020.0" y="954.0" text-anchor="middle" font-family="PingFang SC, Heiti SC, Microsoft YaHei, sans-serif" font-size="30" font-weight="400" fill="#000000">与最终主能力地址</text>
  <text x="1020.0" y="994.0" text-anchor="middle" font-family="PingFang SC, Heiti SC, Microsoft YaHei, sans-serif" font-size="30" font-weight="400" fill="#000000">精确对应的实例候选集合</text>
  <rect x="1450" y="910" width="340" height="130" fill="#ffffff" stroke="#000000" stroke-width="4"/>
  <text x="1620.0" y="979.0" text-anchor="middle" font-family="PingFang SC, Heiti SC, Microsoft YaHei, sans-serif" font-size="30" font-weight="400" fill="#000000">目标智能体实例地址</text>
  <rect x="1840" y="910" width="120" height="130" fill="#ffffff" stroke="#000000" stroke-width="4"/>
  <text x="1900.0" y="979.0" text-anchor="middle" font-family="PingFang SC, Heiti SC, Microsoft YaHei, sans-serif" font-size="30" font-weight="400" fill="#000000">调用端点</text>
  <line x1="560" y1="975" x2="746.0" y2="975.0" stroke="#000000" stroke-width="4" fill="none"/>
  <polygon points="770,975 746.0,991.0 746.0,959.0" fill="#000000"/>
  <line x1="1270" y1="975" x2="1426.0" y2="975.0" stroke="#000000" stroke-width="4" fill="none"/>
  <polygon points="1450,975 1426.0,991.0 1426.0,959.0" fill="#000000"/>
  <line x1="1790" y1="975" x2="1816.0" y2="975.0" stroke="#000000" stroke-width="4" fill="none"/>
  <polygon points="1840,975 1816.0,991.0 1816.0,959.0" fill="#000000"/>
  <line x1="1750" y1="465" x2="1750" y2="690" stroke="#000000" stroke-width="4" fill="none"/>
  <line x1="1750" y1="690" x2="1020" y2="690" stroke="#000000" stroke-width="4" fill="none"/>
  <line x1="1020" y1="690" x2="1020.0" y2="836.0" stroke="#000000" stroke-width="4" fill="none"/>
  <polygon points="1020,860 1004.0,836.0 1036.0,836.0" fill="#000000"/>
</svg>
