<svg xmlns="http://www.w3.org/2000/svg" width="2000" height="1400" viewBox="0 0 2000 1400">
  <rect x="0" y="0" width="2000" height="1400" fill="#ffffff"/>
  <text x="1000.0" y="58.0" text-anchor="middle" font-family="PingFang SC, Heiti SC, Microsoft YaHei, sans-serif" font-size="42" font-weight="700" fill="#000000">图3</text>
  <rect x="120" y="140" width="340" height="110" fill="#ffffff" stroke="#000000" stroke-width="4"/>
  <text x="290.0" y="199.0" text-anchor="middle" font-family="PingFang SC, Heiti SC, Microsoft YaHei, sans-serif" font-size="30" font-weight="400" fill="#000000">快路径裁决结果</text>
  <rect x="580" y="140" width="380" height="110" fill="#ffffff" stroke="#000000" stroke-width="4"/>
  <text x="770.0" y="199.0" text-anchor="middle" font-family="PingFang SC, Heiti SC, Microsoft YaHei, sans-serif" font-size="30" font-weight="400" fill="#000000">语义交接信息</text>
  <rect x="1120" y="140" width="420" height="110" fill="#ffffff" stroke="#000000" stroke-width="4"/>
  <text x="1330.0" y="199.0" text-anchor="middle" font-family="PingFang SC, Heiti SC, Microsoft YaHei, sans-serif" font-size="30" font-weight="400" fill="#000000">候选视图构造</text>
  <line x1="460" y1="195" x2="556.0" y2="195.0" stroke="#000000" stroke-width="4" fill="none"/>
  <polygon points="580,195 556.0,211.0 556.0,179.0" fill="#000000"/>
  <line x1="960" y1="195" x2="1096.0" y2="195.0" stroke="#000000" stroke-width="4" fill="none"/>
  <polygon points="1120,195 1096.0,211.0 1096.0,179.0" fill="#000000"/>
  <rect x="120" y="500" width="280" height="110" fill="#ffffff" stroke="#000000" stroke-width="4"/>
  <text x="260.0" y="559.0" text-anchor="middle" font-family="PingFang SC, Heiti SC, Microsoft YaHei, sans-serif" font-size="30" font-weight="400" fill="#000000">领域专家角色</text>
  <rect x="490" y="500" width="280" height="110" fill="#ffffff" stroke="#000000" stroke-width="4"/>
  <text x="630.0" y="559.0" text-anchor="middle" font-family="PingFang SC, Heiti SC, Microsoft YaHei, sans-serif" font-size="30" font-weight="400" fill="#000000">治理风险角色</text>
  <rect x="860" y="500" width="280" height="110" fill="#ffffff" stroke="#000000" stroke-width="4"/>
  <text x="1000.0" y="559.0" text-anchor="middle" font-family="PingFang SC, Heiti SC, Microsoft YaHei, sans-serif" font-size="30" font-weight="400" fill="#000000">层级解析角色</text>
  <rect x="1230" y="500" width="280" height="110" fill="#ffffff" stroke="#000000" stroke-width="4"/>
  <text x="1370.0" y="559.0" text-anchor="middle" font-family="PingFang SC, Heiti SC, Microsoft YaHei, sans-serif" font-size="30" font-weight="400" fill="#000000">用户偏好角色</text>
  <line x1="1330" y1="250" x2="283.3705769325168" y2="494.5395848288512" stroke="#000000" stroke-width="4" fill="none"/>
  <polygon points="260,500 279.73030015175095,478.95920020717335 287.0108537132827,510.1199694505291" fill="#000000"/>
  <line x1="1330" y1="250" x2="652.6018058782761" y2="491.92792647204425" stroke="#000000" stroke-width="4" fill="none"/>
  <polygon points="630,500 647.2204235263056,476.8600558865268 657.9831882302466,506.9957970575617" fill="#000000"/>
  <line x1="1330" y1="250" x2="1019.1302115556963" y2="485.5074154881089" stroke="#000000" stroke-width="4" fill="none"/>
  <polygon points="1000,500 1009.4684885477689,472.75394111764473 1028.7919345636237,498.2608898585731" fill="#000000"/>
  <line x1="1330" y1="250" x2="1366.2082279734398" y2="476.3014248339991" stroke="#000000" stroke-width="4" fill="none"/>
  <polygon points="1370,500 1350.4091778627724,478.82927285170587 1382.0072780841072,473.7735768162923" fill="#000000"/>
  <rect x="430" y="820" width="780" height="130" fill="#ffffff" stroke="#000000" stroke-width="4"/>
  <text x="820.0" y="889.0" text-anchor="middle" font-family="PingFang SC, Heiti SC, Microsoft YaHei, sans-serif" font-size="32" font-weight="400" fill="#000000">角色提案和角色信号聚合</text>
  <rect x="1390" y="820" width="340" height="130" fill="#ffffff" stroke="#000000" stroke-width="4"/>
  <text x="1560.0" y="889.0" text-anchor="middle" font-family="PingFang SC, Heiti SC, Microsoft YaHei, sans-serif" font-size="30" font-weight="400" fill="#000000">覆盖控制单元</text>
  <line x1="260" y1="610" x2="559.9348501399105" y2="806.8322454043163" stroke="#000000" stroke-width="4" fill="none"/>
  <polygon points="580,820 551.1563470761214,820.2090119777092 568.7133532036996,793.4554788309233" fill="#000000"/>
  <line x1="630" y1="610" x2="728.8638321279066" y2="798.7400431532762" stroke="#000000" stroke-width="4" fill="none"/>
  <polygon points="740,820 714.6905275634241,806.1641550680051 743.037136692389,791.3159312385474" fill="#000000"/>
  <line x1="1000" y1="610" x2="910.3184059294164" y2="798.3313475482257" stroke="#000000" stroke-width="4" fill="none"/>
  <polygon points="900,820 895.8726376282335,791.4524102619481 924.7641742305992,805.2102848345033" fill="#000000"/>
  <line x1="1370" y1="610" x2="1079.87004857172" y2="806.5396445159316" stroke="#000000" stroke-width="4" fill="none"/>
  <polygon points="1060,820 1070.8964782490077,793.2929454681183 1088.8436188944322,819.7863435637449" fill="#000000"/>
  <line x1="1210" y1="885" x2="1366.0" y2="885.0" stroke="#000000" stroke-width="4" fill="none"/>
  <polygon points="1390,885 1366.0,901.0 1366.0,869.0" fill="#000000"/>
  <rect x="380" y="1140" width="360" height="120" fill="#ffffff" stroke="#000000" stroke-width="4"/>
  <text x="560.0" y="1204.0" text-anchor="middle" font-family="PingFang SC, Heiti SC, Microsoft YaHei, sans-serif" font-size="30" font-weight="400" fill="#000000">最终主能力地址</text>
  <rect x="920" y="1140" width="360" height="120" fill="#ffffff" stroke="#000000" stroke-width="4"/>
  <text x="1100.0" y="1204.0" text-anchor="middle" font-family="PingFang SC, Heiti SC, Microsoft YaHei, sans-serif" font-size="30" font-weight="400" fill="#000000">最终相关能力地址</text>
  <line x1="1560" y1="950" x2="583.5781868408342" y2="1135.5201445002415" stroke="#000000" stroke-width="4" fill="none"/>
  <polygon points="560,1140 580.5916165076619,1119.8013532730188 586.5647571740064,1151.2389357274642" fill="#000000"/>
  <line x1="1560" y1="950" x2="1122.1822742357606" y2="1130.837756293925" stroke="#000000" stroke-width="4" fill="none"/>
  <polygon points="1100,1140 1116.0741117650439,1116.0495734700846 1128.2904367064773,1145.6259391177653" fill="#000000"/>
</svg>
